<?xml version="1.0" encoding="utf-8"?>
<!-- Generator: Adobe Illustrator 27.0.0, SVG Export Plug-In . SVG Version: 6.00 Build 0)  -->
<svg version="1.1" id="Livello_1" xmlns="http://www.w3.org/2000/svg" xmlns:xlink="http://www.w3.org/1999/xlink" x="0px"
     y="0px"
     viewBox="0 0 823.34 83.49" style="enable-background:new 0 0 823.34 83.49;" xml:space="preserve">
<style type="text/css">
	.st0{fill:#FFFFFF;}
</style>
    <g id="Livello_2_00000019645536813326133640000014044680983754508212_">
</g>
    <g id="Livello_3">
	<g>
		<path class="st0" d="M-0.33,82.97v-0.24c0-0.16,0.08-0.24,0.24-0.24c0.88-0.32,1.96-0.84,3.24-1.56s2.56-1.58,3.84-2.58
			s2.46-2.16,3.54-3.48s1.86-2.7,2.34-4.14L36.51,1.37h1.08l24.48,71.04c0.72,2.16,1.76,4.18,3.12,6.06
			c1.36,1.88,3.2,3.22,5.52,4.02c0.08,0,0.12,0.08,0.12,0.24v0.24c0,0.16-0.04,0.24-0.12,0.24H48.39c-0.16,0-0.24-0.08-0.24-0.24
			v-0.24c0-0.16,0.08-0.24,0.24-0.24c0.88,0,1.72-0.2,2.52-0.6s1.48-0.92,2.04-1.56s0.94-1.44,1.14-2.4s0.1-1.96-0.3-3l-6.24-18.36
			H18.87l-4.92,14.4c-0.48,1.44-0.58,2.86-0.3,4.26s0.82,2.64,1.62,3.72c0.8,1.08,1.8,1.94,3,2.58s2.52,0.96,3.96,0.96
			c0.16,0,0.24,0.08,0.24,0.24v0.24c0,0.16-0.08,0.24-0.24,0.24H-0.09C-0.25,83.21-0.33,83.13-0.33,82.97z M47.07,55.37L33.15,14.93
			l-13.8,40.44H47.07z"/>
        <path class="st0" d="M81.99,1.85V1.61c0-0.16,0.04-0.24,0.12-0.24h25.32c0.08,0,0.12,0.08,0.12,0.24v0.24
			c0,0.16-0.12,0.24-0.36,0.24c-0.88,0-1.8,0.2-2.76,0.6s-1.84,0.92-2.64,1.56s-1.46,1.42-1.98,2.34c-0.52,0.92-0.78,1.9-0.78,2.94
			v65.04c0,1.76,0.7,3.38,2.1,4.86s2.98,2.22,4.74,2.22h10.08c3.84-0.24,7.08-1.22,9.72-2.94s4.78-3.64,6.42-5.76
			s2.82-4.18,3.54-6.18c0.72-2,1.12-3.36,1.2-4.08c0-0.16,0.08-0.24,0.24-0.24h0.24c0.08,0,0.12,0.08,0.12,0.24l-2.4,20.16
			c-8.88,0-17.7-0.02-26.46-0.06s-17.58-0.06-26.46-0.06c-0.08,0-0.12-0.08-0.12-0.24v-0.24c-0.08-0.16,0.04-0.24,0.36-0.24
			c0.88,0,1.8-0.2,2.76-0.6s1.82-0.92,2.58-1.56s1.4-1.42,1.92-2.34s0.78-1.9,0.78-2.94V9.53c0-1.04-0.26-2.02-0.78-2.94
			s-1.16-1.7-1.92-2.34c-0.76-0.64-1.62-1.16-2.58-1.56s-1.88-0.6-2.76-0.6C82.03,2.09,81.91,2.01,81.99,1.85z"/>
        <path class="st0" d="M148.95,82.25c0.88,0,1.8-0.2,2.76-0.6c0.96-0.4,1.82-0.94,2.58-1.62s1.4-1.5,1.92-2.46s0.78-1.96,0.78-3
			c0.08-5.44,0.12-10.84,0.12-16.2s0-10.8,0-16.32c0-5.44,0-10.84,0-16.2s-0.04-10.76-0.12-16.2c0-1.12-0.26-2.14-0.78-3.06
			s-1.16-1.7-1.92-2.34s-1.62-1.16-2.58-1.56s-1.88-0.6-2.76-0.6c-0.24,0-0.36-0.08-0.36-0.24V1.61c8.4-0.16,17.12-0.24,26.16-0.24
			s17.6,0,25.68,0l2.4,20.16c0.16,0.16,0.12,0.24-0.12,0.24h-0.24c-0.16,0-0.24-0.08-0.24-0.24c-0.24-2.16-0.96-4.34-2.16-6.54
			s-2.68-4.18-4.44-5.94c-1.76-1.76-3.74-3.2-5.94-4.32s-4.46-1.68-6.78-1.68h-10.32c-1.92,0-3.54,0.6-4.86,1.8s-1.98,2.8-1.98,4.8
			c0,5.44-0.02,10.84-0.06,16.2s-0.06,10.76-0.06,16.2v1.56h13.56c0.88,0,1.74-0.26,2.58-0.78s1.6-1.18,2.28-1.98
			s1.24-1.66,1.68-2.58c0.44-0.92,0.66-1.78,0.66-2.58c0-0.16,0.08-0.24,0.24-0.24h0.36c0.08,0,0.12,0.04,0.12,0.12v17.4
			c0,0.08-0.04,0.12-0.12,0.12h-0.36c-0.16,0-0.24-0.08-0.24-0.24c0-0.8-0.22-1.66-0.66-2.58c-0.44-0.92-1-1.78-1.68-2.58
			c-0.68-0.8-1.44-1.46-2.28-1.98s-1.7-0.82-2.58-0.9h-13.56c0,5.04,0.02,10.02,0.06,14.94s0.06,9.86,0.06,14.82
			c0,2,0.74,3.7,2.22,5.1s3.18,2.1,5.1,2.1h8.52c3.84-0.24,6.94-1.22,9.3-2.94s4.2-3.64,5.52-5.76s2.2-4.18,2.64-6.18
			s0.66-3.36,0.66-4.08c0-0.16,0.08-0.24,0.24-0.24h0.24c0.16,0,0.24,0.08,0.24,0.24v20.16h-51.72c-0.08,0-0.12-0.08-0.12-0.24
			l-0.12-0.24C148.47,82.33,148.63,82.25,148.95,82.25z"/>
        <path class="st0" d="M213.99,21.17c0-2.72,0.48-5.32,1.44-7.8s2.34-4.68,4.14-6.6s4.02-3.46,6.66-4.62s5.64-1.74,9-1.74
			c2.16,0,4.2,0.3,6.12,0.9s3.7,1.24,5.34,1.92s3.12,1.32,4.44,1.92s2.46,0.9,3.42,0.9c1.6,0,3.06-0.58,4.38-1.74
			c1.32-1.16,2.18-2.3,2.58-3.42l0.24-0.24h0.24c0.16,0,0.24,0.08,0.24,0.24v24.24c0,0.08-0.08,0.12-0.24,0.12h-0.24
			c-0.16,0-0.24-0.04-0.24-0.12c0-0.88-0.38-2.08-1.14-3.6s-1.74-3.12-2.94-4.8c-1.04-1.6-2.3-3.26-3.78-4.98s-3.14-3.34-4.98-4.86
			s-3.88-2.76-6.12-3.72c-2.24-0.96-4.68-1.44-7.32-1.44c-2.16,0-4.26,0.44-6.3,1.32c-2.04,0.88-3.86,2.04-5.46,3.48
			s-2.9,3.1-3.9,4.98s-1.5,3.86-1.5,5.94c0,2.4,0.38,4.52,1.14,6.36s1.82,3.46,3.18,4.86c1.36,1.4,2.94,2.64,4.74,3.72
			c1.8,1.08,3.7,2.1,5.7,3.06c2.24,1.04,4.56,2.02,6.96,2.94c2.4,0.92,4.78,1.88,7.14,2.88s4.58,2.14,6.66,3.42
			c2.08,1.28,3.9,2.78,5.46,4.5s2.82,3.74,3.78,6.06s1.44,5.04,1.44,8.16c0,2.56-0.42,5.04-1.26,7.44s-2.14,4.54-3.9,6.42
			c-1.76,1.88-3.92,3.38-6.48,4.5s-5.56,1.68-9,1.68c-2.16,0-4.22-0.28-6.18-0.84c-1.96-0.56-3.76-1.2-5.4-1.92
			s-3.12-1.36-4.44-1.92s-2.42-0.84-3.3-0.84c-1.68,0-3.16,0.58-4.44,1.74c-1.28,1.16-2.12,2.26-2.52,3.3l-0.24,0.24h-0.24
			c-0.16,0-0.24-0.08-0.24-0.24V58.85c0-0.16,0.08-0.24,0.24-0.24h0.24c0.16,0,0.24,0.08,0.24,0.24c0,0.88,0.38,2.06,1.14,3.54
			s1.7,3.06,2.82,4.74c1.12,1.52,2.4,3.18,3.84,4.98s3.1,3.44,4.98,4.92c1.88,1.48,3.94,2.72,6.18,3.72c2.24,1,4.68,1.5,7.32,1.5
			c2.16,0,4.2-0.44,6.12-1.32s3.62-2.04,5.1-3.48c1.48-1.44,2.66-3.12,3.54-5.04s1.32-3.88,1.32-5.88c0-3.2-0.7-5.86-2.1-7.98
			s-3.2-3.94-5.4-5.46s-4.72-2.84-7.56-3.96s-5.7-2.24-8.58-3.36c-2.96-1.12-5.76-2.38-8.4-3.78c-2.64-1.4-4.98-3.04-7.02-4.92
			c-2.04-1.88-3.66-4.12-4.86-6.72C214.59,27.75,213.99,24.69,213.99,21.17z"/>
        <path class="st0" d="M275.43,21.17c0-2.72,0.48-5.32,1.44-7.8s2.34-4.68,4.14-6.6c1.8-1.92,4.02-3.46,6.66-4.62s5.64-1.74,9-1.74
			c2.16,0,4.2,0.3,6.12,0.9c1.92,0.6,3.7,1.24,5.34,1.92c1.64,0.68,3.12,1.32,4.44,1.92s2.46,0.9,3.42,0.9
			c1.6,0,3.06-0.58,4.38-1.74s2.18-2.3,2.58-3.42l0.24-0.24h0.24c0.16,0,0.24,0.08,0.24,0.24v24.24c0,0.08-0.08,0.12-0.24,0.12
			h-0.24c-0.16,0-0.24-0.04-0.24-0.12c0-0.88-0.38-2.08-1.14-3.6s-1.74-3.12-2.94-4.8c-1.04-1.6-2.3-3.26-3.78-4.98
			s-3.14-3.34-4.98-4.86s-3.88-2.76-6.12-3.72s-4.68-1.44-7.32-1.44c-2.16,0-4.26,0.44-6.3,1.32c-2.04,0.88-3.86,2.04-5.46,3.48
			s-2.9,3.1-3.9,4.98s-1.5,3.86-1.5,5.94c0,2.4,0.38,4.52,1.14,6.36s1.82,3.46,3.18,4.86c1.36,1.4,2.94,2.64,4.74,3.72
			c1.8,1.08,3.7,2.1,5.7,3.06c2.24,1.04,4.56,2.02,6.96,2.94s4.78,1.88,7.14,2.88c2.36,1,4.58,2.14,6.66,3.42
			c2.08,1.28,3.9,2.78,5.46,4.5s2.82,3.74,3.78,6.06s1.44,5.04,1.44,8.16c0,2.56-0.42,5.04-1.26,7.44s-2.14,4.54-3.9,6.42
			c-1.76,1.88-3.92,3.38-6.48,4.5s-5.56,1.68-9,1.68c-2.16,0-4.22-0.28-6.18-0.84s-3.76-1.2-5.4-1.92
			c-1.64-0.72-3.12-1.36-4.44-1.92s-2.42-0.84-3.3-0.84c-1.68,0-3.16,0.58-4.44,1.74c-1.28,1.16-2.12,2.26-2.52,3.3l-0.24,0.24
			h-0.24c-0.16,0-0.24-0.08-0.24-0.24V58.85c0-0.16,0.08-0.24,0.24-0.24h0.24c0.16,0,0.24,0.08,0.24,0.24
			c0,0.88,0.38,2.06,1.14,3.54s1.7,3.06,2.82,4.74c1.12,1.52,2.4,3.18,3.84,4.98s3.1,3.44,4.98,4.92c1.88,1.48,3.94,2.72,6.18,3.72
			s4.68,1.5,7.32,1.5c2.16,0,4.2-0.44,6.12-1.32c1.92-0.88,3.62-2.04,5.1-3.48s2.66-3.12,3.54-5.04s1.32-3.88,1.32-5.88
			c0-3.2-0.7-5.86-2.1-7.98s-3.2-3.94-5.4-5.46c-2.2-1.52-4.72-2.84-7.56-3.96s-5.7-2.24-8.58-3.36c-2.96-1.12-5.76-2.38-8.4-3.78
			c-2.64-1.4-4.98-3.04-7.02-4.92c-2.04-1.88-3.66-4.12-4.86-6.72C276.03,27.75,275.43,24.69,275.43,21.17z"/>
        <path class="st0" d="M336.87,1.61c2.16-0.08,4.3-0.14,6.42-0.18c2.12-0.04,4.22-0.06,6.3-0.06h0.24c2.08,0,4.16,0.02,6.24,0.06
			c2.08,0.04,4.16,0.06,6.24,0.06c0.16,0,0.24,0.04,0.24,0.12v0.24c0,0.16-0.12,0.24-0.36,0.24c-0.88,0-1.8,0.2-2.76,0.6
			c-0.96,0.4-1.84,0.92-2.64,1.56c-0.8,0.64-1.46,1.42-1.98,2.34c-0.52,0.92-0.78,1.94-0.78,3.06v64.92c0,1.04,0.26,2.04,0.78,3
			s1.18,1.76,1.98,2.4c0.8,0.64,1.68,1.16,2.64,1.56c0.96,0.4,1.88,0.6,2.76,0.6c0.24,0,0.36,0.08,0.36,0.24v0.24
			c0,0.16-0.08,0.24-0.24,0.24h-25.32c-0.08,0-0.12-0.08-0.12-0.24v-0.24c0-0.16,0.12-0.24,0.36-0.24c0.88,0,1.8-0.2,2.76-0.6
			c0.96-0.4,1.84-0.92,2.64-1.56c0.8-0.64,1.46-1.44,1.98-2.4c0.52-0.96,0.78-1.96,0.78-3V9.65c0-1.12-0.26-2.14-0.78-3.06
			s-1.18-1.7-1.98-2.34c-0.8-0.64-1.68-1.16-2.64-1.56c-0.96-0.4-1.88-0.6-2.76-0.6c-0.24,0-0.36-0.08-0.36-0.24L336.87,1.61
			L336.87,1.61z"/>
        <path class="st0" d="M373.59,82.97v-0.24c0-0.16,0.08-0.24,0.24-0.24c0.88-0.32,1.96-0.84,3.24-1.56s2.56-1.58,3.84-2.58
			s2.46-2.16,3.54-3.48c1.08-1.32,1.86-2.7,2.34-4.14l23.64-69.36h1.08l24.48,71.04c0.72,2.16,1.76,4.18,3.12,6.06
			s3.2,3.22,5.52,4.02c0.08,0,0.12,0.08,0.12,0.24v0.24c0,0.16-0.04,0.24-0.12,0.24h-22.32c-0.16,0-0.24-0.08-0.24-0.24v-0.24
			c0-0.16,0.08-0.24,0.24-0.24c0.88,0,1.72-0.2,2.52-0.6s1.48-0.92,2.04-1.56s0.94-1.44,1.14-2.4s0.1-1.96-0.3-3l-6.24-18.36h-28.68
			l-4.92,14.4c-0.48,1.44-0.58,2.86-0.3,4.26s0.82,2.64,1.62,3.72s1.8,1.94,3,2.58s2.52,0.96,3.96,0.96c0.16,0,0.24,0.08,0.24,0.24
			v0.24c0,0.16-0.08,0.24-0.24,0.24h-22.32C373.67,83.21,373.59,83.13,373.59,82.97z M420.99,55.37l-13.92-40.44l-13.8,40.44H420.99
			z"/>
        <path class="st0" d="M487.47,82.97v-0.36c0-0.16,0.12-0.24,0.36-0.24c0.72,0,1.58-0.22,2.58-0.66s1.94-1.12,2.82-2.04
			s1.64-2.12,2.28-3.6c0.64-1.48,0.96-3.3,0.96-5.46l-0.12-66.6c-0.08,0-0.16-0.04-0.24-0.12c-1.12-0.64-2.3-1.1-3.54-1.38
			c-1.24-0.28-2.26-0.42-3.06-0.42c-0.08,0-0.22,0-0.42,0s-0.3-0.08-0.3-0.24V1.61c0-0.16,0.04-0.24,0.12-0.24h16.2
			c0.48,0,0.76,0.06,0.84,0.18s0.32,0.62,0.72,1.5c4,9.6,8.18,19.28,12.54,29.04s8.7,19.44,13.02,29.04l21.84-57.36V3.65
			c0-1.36,0.5-2.08,1.5-2.16c1-0.08,2.18-0.12,3.54-0.12h12c0.08,0,0.12,0.08,0.12,0.24v0.24c0,0.16-0.12,0.24-0.36,0.24
			c-0.88,0-1.8,0.2-2.76,0.6s-1.84,0.92-2.64,1.56s-1.46,1.42-1.98,2.34c-0.52,0.92-0.78,1.9-0.78,2.94v65.04
			c0,1.04,0.26,2.02,0.78,2.94c0.52,0.92,1.18,1.7,1.98,2.34s1.68,1.16,2.64,1.56c0.96,0.4,1.88,0.6,2.76,0.6
			c0.24,0,0.36,0.08,0.36,0.24v0.24c0,0.16-0.04,0.24-0.12,0.24h-25.32c-0.08,0-0.12-0.08-0.12-0.24l-0.12-0.24
			c0-0.16,0.16-0.24,0.48-0.24c0.88,0,1.8-0.2,2.76-0.6s1.82-0.92,2.58-1.56s1.4-1.42,1.92-2.34c0.52-0.92,0.78-1.9,0.78-2.94V7.37
			c-4.08,10.72-8.1,21.4-12.06,32.04s-7.98,21.36-12.06,32.16h-2.64c-4.8-10.8-9.58-21.54-14.34-32.22s-9.54-21.42-14.34-32.22
			c-0.24-0.64-0.42-1.1-0.54-1.38s-0.26-0.54-0.42-0.78v51.6c0.08,2.4,0.12,4.8,0.12,7.2s0,4.8,0,7.2c0,1.2,0.22,2.46,0.66,3.78
			s1.06,2.54,1.86,3.66s1.74,2.06,2.82,2.82c1.08,0.76,2.26,1.14,3.54,1.14c0.16,0,0.24,0.08,0.24,0.24v0.24
			c0,0.16-0.04,0.24-0.12,0.24h-18.84C487.63,83.09,487.47,83.05,487.47,82.97z"/>
        <path class="st0" d="M582.27,1.61c2.16-0.08,4.3-0.14,6.42-0.18c2.12-0.04,4.22-0.06,6.3-0.06h0.24c2.08,0,4.16,0.02,6.24,0.06
			c2.08,0.04,4.16,0.06,6.24,0.06c0.16,0,0.24,0.04,0.24,0.12v0.24c0,0.16-0.12,0.24-0.36,0.24c-0.88,0-1.8,0.2-2.76,0.6
			s-1.84,0.92-2.64,1.56s-1.46,1.42-1.98,2.34c-0.52,0.92-0.78,1.94-0.78,3.06v64.92c0,1.04,0.26,2.04,0.78,3s1.18,1.76,1.98,2.4
			s1.68,1.16,2.64,1.56c0.96,0.4,1.88,0.6,2.76,0.6c0.24,0,0.36,0.08,0.36,0.24v0.24c0,0.16-0.08,0.24-0.24,0.24h-25.32
			c-0.08,0-0.12-0.08-0.12-0.24v-0.24c0-0.16,0.12-0.24,0.36-0.24c0.88,0,1.8-0.2,2.76-0.6s1.84-0.92,2.64-1.56s1.46-1.44,1.98-2.4
			s0.78-1.96,0.78-3V9.65c0-1.12-0.26-2.14-0.78-3.06s-1.18-1.7-1.98-2.34s-1.68-1.16-2.64-1.56s-1.88-0.6-2.76-0.6
			c-0.24,0-0.36-0.08-0.36-0.24L582.27,1.61L582.27,1.61z"/>
        <path class="st0" d="M619.1,1.85V1.61c0-0.16,0.04-0.24,0.12-0.24h25.32c0.08,0,0.12,0.08,0.12,0.24v0.24
			c0,0.16-0.12,0.24-0.36,0.24c-0.88,0-1.8,0.2-2.76,0.6s-1.84,0.92-2.64,1.56s-1.46,1.42-1.98,2.34c-0.52,0.92-0.78,1.9-0.78,2.94
			v65.04c0,1.76,0.7,3.38,2.1,4.86c1.4,1.48,2.98,2.22,4.74,2.22h10.08c3.84-0.24,7.08-1.22,9.72-2.94
			c2.64-1.72,4.78-3.64,6.42-5.76c1.64-2.12,2.82-4.18,3.54-6.18s1.12-3.36,1.2-4.08c0-0.16,0.08-0.24,0.24-0.24h0.24
			c0.08,0,0.12,0.08,0.12,0.24l-2.4,20.16c-8.88,0-17.7-0.02-26.46-0.06s-17.58-0.06-26.46-0.06c-0.08,0-0.12-0.08-0.12-0.24v-0.24
			c-0.08-0.16,0.04-0.24,0.36-0.24c0.88,0,1.8-0.2,2.76-0.6s1.82-0.92,2.58-1.56s1.4-1.42,1.92-2.34c0.52-0.92,0.78-1.9,0.78-2.94
			V9.53c0-1.04-0.26-2.02-0.78-2.94s-1.16-1.7-1.92-2.34s-1.62-1.16-2.58-1.56s-1.88-0.6-2.76-0.6
			C619.15,2.09,619.02,2.01,619.1,1.85z"/>
        <path class="st0" d="M685.7,1.85V1.61c0-0.16,0.04-0.24,0.12-0.24h25.32c0.08,0,0.12,0.08,0.12,0.24v0.24
			c0,0.16-0.12,0.24-0.36,0.24c-0.88,0-1.8,0.2-2.76,0.6s-1.84,0.92-2.64,1.56s-1.46,1.42-1.98,2.34c-0.52,0.92-0.78,1.9-0.78,2.94
			v65.04c0,1.76,0.7,3.38,2.1,4.86c1.4,1.48,2.98,2.22,4.74,2.22h10.08c3.84-0.24,7.08-1.22,9.72-2.94
			c2.64-1.72,4.78-3.64,6.42-5.76c1.64-2.12,2.82-4.18,3.54-6.18s1.12-3.36,1.2-4.08c0-0.16,0.08-0.24,0.24-0.24h0.24
			c0.08,0,0.12,0.08,0.12,0.24l-2.4,20.16c-8.88,0-17.7-0.02-26.46-0.06s-17.58-0.06-26.46-0.06c-0.08,0-0.12-0.08-0.12-0.24v-0.24
			c-0.08-0.16,0.04-0.24,0.36-0.24c0.88,0,1.8-0.2,2.76-0.6s1.82-0.92,2.58-1.56s1.4-1.42,1.92-2.34c0.52-0.92,0.78-1.9,0.78-2.94
			V9.53c0-1.04-0.26-2.02-0.78-2.94s-1.16-1.7-1.92-2.34s-1.62-1.16-2.58-1.56s-1.88-0.6-2.76-0.6
			C685.74,2.09,685.62,2.01,685.7,1.85z"/>
        <path class="st0" d="M752.18,82.97v-0.24c0-0.16,0.08-0.24,0.24-0.24c0.88-0.32,1.96-0.84,3.24-1.56
			c1.28-0.72,2.56-1.58,3.84-2.58s2.46-2.16,3.54-3.48c1.08-1.32,1.86-2.7,2.34-4.14l23.64-69.36h1.08l24.48,71.04
			c0.72,2.16,1.76,4.18,3.12,6.06s3.2,3.22,5.52,4.02c0.08,0,0.12,0.08,0.12,0.24v0.24c0,0.16-0.04,0.24-0.12,0.24H800.9
			c-0.16,0-0.24-0.08-0.24-0.24v-0.24c0-0.16,0.08-0.24,0.24-0.24c0.88,0,1.72-0.2,2.52-0.6c0.8-0.4,1.48-0.92,2.04-1.56
			s0.94-1.44,1.14-2.4s0.1-1.96-0.3-3l-6.24-18.36h-28.68l-4.92,14.4c-0.48,1.44-0.58,2.86-0.3,4.26s0.82,2.64,1.62,3.72
			s1.8,1.94,3,2.58s2.52,0.96,3.96,0.96c0.16,0,0.24,0.08,0.24,0.24v0.24c0,0.16-0.08,0.24-0.24,0.24h-22.32
			C752.26,83.21,752.18,83.13,752.18,82.97z M799.58,55.37l-13.92-40.44l-13.8,40.44H799.58z"/>
	</g>
</g>
</svg>
