<?xml version="1.0" encoding="utf-8"?>
<!-- Generator: Adobe Illustrator 27.0.0, SVG Export Plug-In . SVG Version: 6.00 Build 0)  -->
<svg version="1.1" id="Livello_1" xmlns="http://www.w3.org/2000/svg" xmlns:xlink="http://www.w3.org/1999/xlink" x="0px" y="0px"
	 viewBox="0 0 271.29 9.29" style="enable-background:new 0 0 271.29 9.29;" xml:space="preserve">
<style type="text/css">
	.st0{fill:#FFFFFF;stroke:#FFFFFF;stroke-width:0.25;stroke-miterlimit:10;}
</style>
<g id="Livello_3">
	<g>
		<path class="st0" d="M6.78,7.11c0.06,0,0.12,0.03,0.17,0.08l0.46,0.5C7.06,8.1,6.63,8.42,6.13,8.64S5.02,8.98,4.32,8.98
			c-0.62,0-1.18-0.11-1.69-0.32c-0.5-0.21-0.93-0.51-1.29-0.9S0.71,6.91,0.51,6.37S0.22,5.24,0.22,4.59s0.1-1.24,0.31-1.78
			s0.5-1,0.89-1.39c0.38-0.39,0.83-0.69,1.36-0.9S3.89,0.2,4.53,0.2c0.63,0,1.18,0.1,1.64,0.29s0.86,0.46,1.22,0.8L7.01,1.82
			c-0.03,0.04-0.06,0.07-0.1,0.1S6.82,1.96,6.75,1.96c-0.05,0-0.11-0.02-0.17-0.06S6.45,1.82,6.37,1.76S6.2,1.64,6.09,1.58
			S5.85,1.46,5.71,1.4C5.56,1.34,5.39,1.3,5.19,1.26S4.77,1.2,4.51,1.2c-0.46,0-0.88,0.08-1.26,0.24C2.87,1.6,2.54,1.82,2.26,2.12
			S1.77,2.77,1.61,3.19S1.38,4.08,1.38,4.6c0,0.54,0.08,1.01,0.23,1.43S1.97,6.8,2.24,7.09S2.82,7.6,3.19,7.75
			C3.55,7.9,3.95,7.98,4.37,7.98c0.26,0,0.49-0.02,0.69-0.05c0.2-0.03,0.39-0.08,0.57-0.14C5.8,7.73,5.97,7.64,6.12,7.55
			s0.3-0.21,0.45-0.35C6.65,7.14,6.71,7.11,6.78,7.11z"/>
		<path class="st0" d="M11.14,5.3v3.59H9.98v-8.6h2.43c0.54,0,1.01,0.06,1.41,0.17s0.72,0.27,0.98,0.48
			c0.26,0.21,0.45,0.46,0.57,0.75s0.19,0.62,0.19,0.99c0,0.3-0.05,0.59-0.14,0.85c-0.1,0.26-0.24,0.5-0.42,0.71s-0.4,0.39-0.67,0.54
			c-0.26,0.15-0.56,0.26-0.89,0.34c0.14,0.08,0.27,0.21,0.38,0.37l2.51,3.41H15.3c-0.21,0-0.37-0.08-0.47-0.25L12.6,5.58
			c-0.07-0.1-0.14-0.17-0.22-0.21s-0.2-0.06-0.36-0.06h-0.88V5.3z M11.14,4.46h1.22c0.34,0,0.64-0.04,0.9-0.12s0.47-0.2,0.65-0.35
			c0.17-0.15,0.31-0.33,0.39-0.54s0.13-0.44,0.13-0.69c0-0.51-0.17-0.9-0.51-1.16s-0.84-0.39-1.51-0.39h-1.27
			C11.14,1.21,11.14,4.46,11.14,4.46z"/>
		<path class="st0" d="M23.81,0.29v0.95h-4.13V4.1h3.34v0.91h-3.34v2.93h4.13v0.95h-5.3v-8.6H23.81z"/>
		<path class="st0" d="M33.48,8.89h-0.9c-0.1,0-0.19-0.03-0.25-0.08s-0.11-0.12-0.14-0.2l-0.8-2.08h-3.86l-0.8,2.08
			c-0.03,0.07-0.08,0.14-0.14,0.19s-0.15,0.08-0.25,0.08h-0.9l3.44-8.6h1.18L33.48,8.89z M27.85,5.7h3.21l-1.35-3.5
			c-0.09-0.22-0.17-0.49-0.26-0.81c-0.04,0.16-0.09,0.31-0.13,0.45C29.28,1.98,29.24,2.1,29.2,2.2L27.85,5.7z"/>
		<path class="st0" d="M40.56,0.29v0.98h-2.78v7.62h-1.16V1.27h-2.79V0.29H40.56z"/>
		<path class="st0" d="M44.08,8.89h-1.16v-8.6h1.16V8.89z"/>
		<path class="st0" d="M46.32,0.29h0.93c0.1,0,0.19,0.03,0.25,0.08s0.11,0.12,0.14,0.2l2.43,6.07c0.06,0.14,0.11,0.28,0.15,0.44
			s0.09,0.33,0.13,0.5c0.04-0.17,0.08-0.34,0.12-0.5s0.09-0.31,0.15-0.44l2.42-6.07c0.03-0.07,0.08-0.13,0.14-0.19
			c0.07-0.06,0.15-0.09,0.25-0.09h0.94l-3.5,8.6h-1.05L46.32,0.29z"/>
		<path class="st0" d="M61.69,0.29v0.95h-4.13V4.1h3.34v0.91h-3.34v2.93h4.13v0.95h-5.3v-8.6H61.69z"/>
		<path class="st0" d="M74.98,4.59c0,0.64-0.1,1.23-0.31,1.76c-0.2,0.53-0.49,0.98-0.86,1.36s-0.82,0.67-1.34,0.87
			s-1.1,0.31-1.73,0.31h-3.22v-8.6h3.22c0.63,0,1.21,0.1,1.73,0.31s0.97,0.5,1.34,0.88s0.66,0.83,0.86,1.36
			C74.88,3.36,74.98,3.95,74.98,4.59z M73.79,4.59c0-0.53-0.07-1-0.22-1.42s-0.35-0.77-0.61-1.06S72.38,1.6,72,1.45
			s-0.79-0.23-1.25-0.23H68.7v6.71h2.05c0.46,0,0.88-0.08,1.25-0.23s0.7-0.37,0.96-0.66s0.47-0.64,0.61-1.05S73.79,5.12,73.79,4.59z
			"/>
		<path class="st0" d="M78.87,8.89h-1.16v-8.6h1.16V8.89z"/>
		<path class="st0" d="M83.38,5.3v3.59h-1.16v-8.6h2.43c0.54,0,1.01,0.06,1.41,0.17s0.72,0.27,0.98,0.48
			c0.26,0.21,0.45,0.46,0.57,0.75s0.19,0.62,0.19,0.99c0,0.3-0.05,0.59-0.14,0.85c-0.1,0.26-0.24,0.5-0.42,0.71s-0.4,0.39-0.67,0.54
			c-0.26,0.15-0.56,0.26-0.89,0.34c0.14,0.08,0.27,0.21,0.38,0.37l2.51,3.41h-1.03c-0.21,0-0.37-0.08-0.47-0.25l-2.23-3.07
			c-0.07-0.1-0.14-0.17-0.22-0.21s-0.2-0.06-0.36-0.06h-0.88V5.3z M83.38,4.46h1.22c0.34,0,0.64-0.04,0.9-0.12s0.47-0.2,0.65-0.35
			c0.17-0.15,0.31-0.33,0.39-0.54s0.13-0.44,0.13-0.69c0-0.51-0.17-0.9-0.51-1.16c-0.34-0.26-0.84-0.39-1.51-0.39h-1.27V4.46z"/>
		<path class="st0" d="M96.05,0.29v0.95h-4.13V4.1h3.34v0.91h-3.34v2.93h4.13v0.95h-5.3v-8.6H96.05z"/>
		<path class="st0" d="M104.71,7.11c0.06,0,0.12,0.03,0.17,0.08l0.46,0.5c-0.35,0.41-0.78,0.73-1.28,0.95s-1.11,0.34-1.81,0.34
			c-0.62,0-1.18-0.11-1.69-0.32c-0.5-0.21-0.93-0.51-1.29-0.9s-0.63-0.85-0.83-1.39s-0.29-1.13-0.29-1.78s0.1-1.24,0.31-1.78
			s0.5-1,0.89-1.39c0.38-0.39,0.83-0.69,1.36-0.9s1.11-0.32,1.75-0.32c0.63,0,1.18,0.1,1.64,0.29s0.86,0.46,1.22,0.8l-0.38,0.53
			c-0.03,0.04-0.06,0.07-0.1,0.1s-0.09,0.04-0.16,0.04c-0.05,0-0.11-0.02-0.17-0.06s-0.13-0.08-0.21-0.14s-0.17-0.12-0.28-0.18
			s-0.24-0.12-0.38-0.18c-0.15-0.06-0.32-0.1-0.52-0.14s-0.42-0.06-0.68-0.06c-0.46,0-0.88,0.08-1.26,0.24
			c-0.38,0.16-0.71,0.38-0.99,0.68s-0.49,0.65-0.65,1.07s-0.23,0.89-0.23,1.41c0,0.54,0.08,1.01,0.23,1.43s0.36,0.77,0.63,1.06
			s0.58,0.51,0.95,0.66c0.36,0.15,0.76,0.23,1.18,0.23c0.26,0,0.49-0.02,0.69-0.05c0.2-0.03,0.39-0.08,0.57-0.14
			c0.17-0.06,0.34-0.15,0.49-0.24s0.3-0.21,0.45-0.35C104.58,7.14,104.64,7.11,104.71,7.11z"/>
		<path class="st0" d="M113.65,0.29v0.98h-2.78v7.62h-1.16V1.27h-2.79V0.29H113.65z"/>
		<path class="st0" d="M117.17,8.89h-1.16v-8.6h1.16V8.89z"/>
		<path class="st0" d="M128.39,4.59c0,0.64-0.1,1.23-0.31,1.77c-0.2,0.54-0.49,1-0.86,1.39s-0.82,0.69-1.34,0.9s-1.1,0.32-1.73,0.32
			c-0.63,0-1.21-0.11-1.73-0.32s-0.97-0.52-1.34-0.9c-0.37-0.39-0.66-0.85-0.86-1.39s-0.31-1.13-0.31-1.77s0.1-1.23,0.31-1.77
			s0.49-1,0.86-1.39s0.82-0.69,1.34-0.91s1.1-0.32,1.73-0.32c0.63,0,1.21,0.11,1.73,0.32c0.52,0.22,0.97,0.52,1.34,0.91
			s0.66,0.85,0.86,1.39C128.29,3.36,128.39,3.95,128.39,4.59z M127.19,4.59c0-0.53-0.07-1-0.22-1.42c-0.14-0.42-0.35-0.78-0.61-1.07
			s-0.58-0.51-0.96-0.67c-0.38-0.16-0.8-0.23-1.26-0.23s-0.88,0.08-1.25,0.23c-0.38,0.16-0.7,0.38-0.96,0.67
			c-0.27,0.29-0.47,0.65-0.61,1.07s-0.22,0.89-0.22,1.42s0.07,1,0.22,1.42s0.35,0.77,0.61,1.06c0.27,0.29,0.59,0.51,0.96,0.67
			s0.79,0.23,1.25,0.23s0.88-0.08,1.26-0.23s0.7-0.38,0.96-0.67s0.47-0.64,0.61-1.06S127.19,5.12,127.19,4.59z"/>
		<path class="st0" d="M131.73,0.33c0.05,0.03,0.11,0.08,0.17,0.16l4.98,6.48c-0.01-0.1-0.02-0.21-0.02-0.3
			c0-0.1-0.01-0.19-0.01-0.28V0.3h1.02v8.6h-0.59c-0.09,0-0.17-0.02-0.23-0.05c-0.06-0.03-0.12-0.09-0.18-0.16l-4.97-6.47
			c0.01,0.1,0.01,0.2,0.02,0.29c0,0.1,0.01,0.18,0.01,0.26V8.9h-1.02V0.3h0.6C131.61,0.29,131.68,0.31,131.73,0.33z"/>
		<path class="st0" d="M151.21,8.89h-0.9c-0.1,0-0.19-0.03-0.25-0.08s-0.11-0.12-0.14-0.2l-0.8-2.08h-3.86l-0.8,2.08
			c-0.03,0.07-0.08,0.14-0.14,0.19s-0.15,0.08-0.25,0.08h-0.9l3.44-8.6h1.18L151.21,8.89z M145.58,5.7h3.21l-1.35-3.5
			c-0.09-0.22-0.17-0.49-0.26-0.81c-0.04,0.16-0.09,0.31-0.13,0.45c-0.04,0.14-0.08,0.26-0.12,0.36L145.58,5.7z"/>
		<path class="st0" d="M154.05,0.33c0.05,0.03,0.11,0.08,0.17,0.16l4.98,6.48c-0.01-0.1-0.02-0.21-0.02-0.3
			c0-0.1-0.01-0.19-0.01-0.28V0.3h1.02v8.6h-0.59c-0.09,0-0.17-0.02-0.23-0.05c-0.06-0.03-0.12-0.09-0.18-0.16l-4.97-6.47
			c0.01,0.1,0.01,0.2,0.02,0.29c0,0.1,0.01,0.18,0.01,0.26V8.9h-1.02V0.3h0.6C153.93,0.29,154,0.31,154.05,0.33z"/>
		<path class="st0" d="M170.67,4.59c0,0.64-0.1,1.23-0.31,1.76c-0.2,0.53-0.49,0.98-0.86,1.36s-0.82,0.67-1.34,0.87
			s-1.1,0.31-1.73,0.31h-3.22v-8.6h3.22c0.63,0,1.21,0.1,1.73,0.31s0.97,0.5,1.34,0.88s0.66,0.83,0.86,1.36
			C170.57,3.36,170.67,3.95,170.67,4.59z M169.48,4.59c0-0.53-0.07-1-0.22-1.42s-0.35-0.77-0.61-1.06s-0.58-0.51-0.96-0.66
			s-0.79-0.23-1.25-0.23h-2.05v6.71h2.05c0.46,0,0.88-0.08,1.25-0.23s0.7-0.37,0.96-0.66c0.26-0.29,0.47-0.64,0.61-1.05
			S169.48,5.12,169.48,4.59z"/>
		<path class="st0" d="M182.48,7.11c0.06,0,0.12,0.03,0.17,0.08l0.46,0.5c-0.35,0.41-0.78,0.73-1.28,0.95s-1.11,0.34-1.82,0.34
			c-0.62,0-1.18-0.11-1.69-0.32c-0.5-0.21-0.93-0.51-1.29-0.9s-0.63-0.85-0.83-1.39s-0.29-1.13-0.29-1.78s0.1-1.24,0.32-1.78
			c0.21-0.54,0.5-1,0.88-1.39s0.83-0.69,1.37-0.9c0.53-0.21,1.11-0.32,1.75-0.32c0.63,0,1.18,0.1,1.63,0.29s0.87,0.46,1.22,0.8
			l-0.38,0.53c-0.03,0.04-0.06,0.07-0.1,0.1c-0.04,0.03-0.09,0.04-0.16,0.04c-0.05,0-0.11-0.02-0.17-0.06s-0.13-0.08-0.21-0.14
			s-0.17-0.12-0.28-0.18s-0.24-0.12-0.38-0.18c-0.15-0.06-0.32-0.1-0.52-0.14s-0.42-0.06-0.68-0.06c-0.46,0-0.88,0.08-1.26,0.24
			c-0.38,0.16-0.71,0.38-0.99,0.68c-0.28,0.29-0.49,0.65-0.64,1.07s-0.23,0.89-0.23,1.41c0,0.54,0.08,1.01,0.23,1.43
			s0.36,0.77,0.63,1.06s0.58,0.51,0.95,0.66c0.36,0.15,0.76,0.23,1.18,0.23c0.26,0,0.49-0.02,0.69-0.05
			c0.2-0.03,0.39-0.08,0.57-0.14s0.34-0.15,0.49-0.24c0.15-0.1,0.3-0.21,0.45-0.35C182.35,7.14,182.41,7.11,182.48,7.11z"/>
		<path class="st0" d="M193.55,4.59c0,0.64-0.1,1.23-0.31,1.77s-0.49,1-0.86,1.39s-0.82,0.69-1.34,0.9
			c-0.52,0.21-1.1,0.32-1.73,0.32s-1.21-0.11-1.73-0.32c-0.52-0.21-0.97-0.52-1.34-0.9c-0.37-0.39-0.66-0.85-0.86-1.39
			s-0.31-1.13-0.31-1.77s0.1-1.23,0.31-1.77c0.2-0.54,0.49-1,0.86-1.39s0.82-0.69,1.34-0.91c0.52-0.22,1.1-0.32,1.73-0.32
			s1.21,0.11,1.73,0.32c0.52,0.22,0.97,0.52,1.34,0.91s0.66,0.85,0.86,1.39S193.55,3.95,193.55,4.59z M192.35,4.59
			c0-0.53-0.07-1-0.22-1.42c-0.14-0.42-0.35-0.78-0.61-1.07s-0.58-0.51-0.96-0.67c-0.38-0.16-0.8-0.23-1.26-0.23
			c-0.46,0-0.88,0.08-1.25,0.23c-0.38,0.16-0.7,0.38-0.96,0.67c-0.27,0.29-0.47,0.65-0.62,1.07c-0.14,0.42-0.22,0.89-0.22,1.42
			s0.07,1,0.22,1.42c0.14,0.42,0.35,0.77,0.62,1.06c0.27,0.29,0.59,0.51,0.96,0.67s0.79,0.23,1.25,0.23s0.88-0.08,1.26-0.23
			s0.7-0.38,0.96-0.67c0.26-0.29,0.47-0.64,0.61-1.06C192.28,5.6,192.35,5.12,192.35,4.59z"/>
		<path class="st0" d="M196.89,0.33c0.05,0.03,0.11,0.08,0.17,0.16l4.98,6.48c-0.01-0.1-0.02-0.21-0.02-0.3
			c0-0.1-0.01-0.19-0.01-0.28V0.3h1.02v8.6h-0.59c-0.09,0-0.17-0.02-0.23-0.05c-0.06-0.03-0.12-0.09-0.18-0.16l-4.97-6.47
			c0.01,0.1,0.01,0.2,0.02,0.29c0,0.1,0.01,0.18,0.01,0.26V8.9h-1.02V0.3h0.6C196.77,0.29,196.84,0.31,196.89,0.33z"/>
		<path class="st0" d="M210.46,1.64c-0.04,0.06-0.07,0.1-0.11,0.13s-0.09,0.04-0.16,0.04s-0.15-0.03-0.24-0.1
			c-0.09-0.07-0.2-0.14-0.34-0.23c-0.14-0.08-0.3-0.16-0.5-0.23c-0.19-0.07-0.43-0.1-0.7-0.1c-0.26,0-0.49,0.04-0.69,0.1
			c-0.2,0.07-0.37,0.17-0.5,0.29s-0.24,0.26-0.3,0.42c-0.07,0.16-0.1,0.34-0.1,0.52c0,0.24,0.06,0.44,0.18,0.6
			c0.12,0.16,0.27,0.29,0.47,0.4c0.19,0.11,0.41,0.21,0.66,0.29s0.5,0.17,0.76,0.26c0.26,0.09,0.51,0.19,0.76,0.3
			s0.47,0.25,0.66,0.42s0.35,0.37,0.47,0.62c0.12,0.24,0.18,0.54,0.18,0.9c0,0.38-0.06,0.73-0.19,1.06
			c-0.13,0.33-0.32,0.62-0.56,0.86s-0.55,0.44-0.91,0.58s-0.76,0.21-1.22,0.21c-0.56,0-1.06-0.1-1.52-0.3
			c-0.46-0.2-0.85-0.48-1.17-0.82l0.34-0.55c0.03-0.04,0.07-0.08,0.12-0.11c0.05-0.03,0.1-0.04,0.15-0.04
			c0.08,0,0.18,0.04,0.29,0.13s0.24,0.19,0.41,0.3c0.16,0.11,0.36,0.21,0.59,0.3c0.23,0.09,0.51,0.13,0.84,0.13
			c0.28,0,0.52-0.04,0.74-0.11c0.22-0.08,0.4-0.18,0.55-0.32c0.15-0.14,0.26-0.3,0.34-0.49c0.08-0.19,0.12-0.41,0.12-0.64
			c0-0.26-0.06-0.47-0.18-0.64s-0.27-0.3-0.46-0.42c-0.19-0.11-0.41-0.21-0.66-0.29s-0.5-0.16-0.76-0.24
			c-0.26-0.08-0.51-0.18-0.76-0.29s-0.46-0.25-0.66-0.42c-0.19-0.17-0.35-0.39-0.46-0.65c-0.12-0.26-0.18-0.58-0.18-0.96
			c0-0.3,0.06-0.6,0.18-0.88s0.29-0.54,0.51-0.76s0.5-0.4,0.83-0.53s0.71-0.2,1.14-0.2c0.48,0,0.92,0.08,1.31,0.23
			c0.4,0.15,0.74,0.37,1.04,0.66L210.46,1.64z"/>
		<path class="st0" d="M216.68,7.97c0.36,0,0.67-0.06,0.95-0.18s0.52-0.29,0.71-0.5c0.19-0.22,0.34-0.47,0.44-0.77
			c0.1-0.3,0.15-0.63,0.15-0.99V0.3h1.16v5.23c0,0.5-0.08,0.96-0.24,1.38s-0.38,0.79-0.68,1.1s-0.65,0.55-1.08,0.73
			c-0.42,0.18-0.9,0.26-1.43,0.26s-1-0.09-1.43-0.26c-0.42-0.18-0.78-0.42-1.08-0.73s-0.52-0.68-0.68-1.1
			c-0.16-0.42-0.24-0.88-0.24-1.38V0.3h1.16v5.22c0,0.36,0.05,0.69,0.15,0.99c0.1,0.3,0.25,0.56,0.44,0.77
			c0.19,0.22,0.43,0.38,0.71,0.51C216.01,7.91,216.33,7.97,216.68,7.97z"/>
		<path class="st0" d="M224.19,7.91h3.72v0.98h-4.88v-8.6h1.16V7.91z"/>
		<path class="st0" d="M234.94,0.29v0.98h-2.78v7.62H231V1.27h-2.79V0.29H234.94z"/>
		<path class="st0" d="M243.37,8.89h-0.9c-0.1,0-0.19-0.03-0.25-0.08s-0.11-0.12-0.14-0.2l-0.8-2.08h-3.86l-0.8,2.08
			c-0.03,0.07-0.08,0.14-0.14,0.19s-0.15,0.08-0.25,0.08h-0.9l3.44-8.6h1.18L243.37,8.89z M237.74,5.7h3.21l-1.35-3.5
			c-0.09-0.22-0.17-0.49-0.26-0.81c-0.04,0.16-0.09,0.31-0.13,0.45c-0.04,0.14-0.08,0.26-0.12,0.36L237.74,5.7z"/>
		<path class="st0" d="M246.21,0.33c0.05,0.03,0.11,0.08,0.17,0.16l4.98,6.48c-0.01-0.1-0.02-0.21-0.03-0.3
			c0-0.1-0.01-0.19-0.01-0.28V0.3h1.02v8.6h-0.59c-0.09,0-0.17-0.02-0.23-0.05c-0.06-0.03-0.12-0.09-0.18-0.16l-4.97-6.47
			c0.01,0.1,0.01,0.2,0.02,0.29c0,0.1,0.01,0.18,0.01,0.26V8.9h-1.02V0.3h0.6C246.09,0.29,246.16,0.31,246.21,0.33z"/>
		<path class="st0" d="M261.44,7.11c0.06,0,0.12,0.03,0.18,0.08l0.46,0.5c-0.35,0.41-0.78,0.73-1.28,0.95s-1.11,0.34-1.81,0.34
			c-0.62,0-1.18-0.11-1.69-0.32c-0.5-0.21-0.94-0.51-1.29-0.9c-0.36-0.39-0.63-0.85-0.83-1.39s-0.29-1.13-0.29-1.78
			s0.1-1.24,0.31-1.78s0.51-1,0.88-1.39c0.38-0.39,0.84-0.69,1.37-0.9s1.12-0.32,1.76-0.32c0.63,0,1.18,0.1,1.63,0.29
			c0.46,0.2,0.87,0.46,1.22,0.8l-0.38,0.53c-0.03,0.04-0.06,0.07-0.1,0.1s-0.09,0.04-0.16,0.04c-0.05,0-0.11-0.02-0.16-0.06
			c-0.06-0.04-0.13-0.08-0.21-0.14s-0.17-0.12-0.28-0.18s-0.23-0.12-0.38-0.18s-0.32-0.1-0.52-0.14c-0.2-0.04-0.42-0.06-0.68-0.06
			c-0.46,0-0.88,0.08-1.26,0.24c-0.38,0.16-0.71,0.38-0.99,0.68c-0.28,0.29-0.49,0.65-0.64,1.07s-0.23,0.89-0.23,1.41
			c0,0.54,0.08,1.01,0.23,1.43c0.15,0.42,0.37,0.77,0.63,1.06s0.58,0.51,0.95,0.66c0.36,0.15,0.76,0.23,1.18,0.23
			c0.26,0,0.49-0.02,0.69-0.05c0.2-0.03,0.39-0.08,0.57-0.14s0.34-0.15,0.49-0.24s0.3-0.21,0.45-0.35
			C261.31,7.14,261.37,7.11,261.44,7.11z"/>
		<path class="st0" d="M267.83,5.47v3.42h-1.16V5.47l-3.15-5.18h1.02c0.1,0,0.19,0.03,0.25,0.08s0.11,0.12,0.15,0.19l1.97,3.34
			c0.08,0.14,0.15,0.27,0.2,0.4s0.1,0.25,0.15,0.37c0.04-0.12,0.09-0.25,0.14-0.37c0.05-0.12,0.12-0.25,0.2-0.39l1.96-3.34
			c0.04-0.06,0.08-0.12,0.15-0.18c0.06-0.06,0.14-0.09,0.24-0.09h1.03L267.83,5.47z"/>
	</g>
</g>
</svg>
